<svg version="1.1" id="Layer_1" xmlns="http://www.w3.org/2000/svg" xmlns:xlink="http://www.w3.org/1999/xlink" x="0px" y="0px"
	 width="100%" viewBox="0 0 260 194" enable-background="new 0 0 260 194" xml:space="preserve">
<path fill="#FFFFFF" opacity="1.000000" stroke="none" 
	d="
M165.000000,195.000000 
	C110.000000,195.000000 55.500008,195.000000 1.000007,195.000000 
	C1.000005,130.333344 1.000005,65.666679 1.000002,1.000016 
	C87.666656,1.000011 174.333313,1.000011 261.000000,1.000005 
	C261.000000,65.666649 261.000000,130.333298 261.000000,194.999969 
	C229.166672,195.000000 197.333328,195.000000 165.000000,195.000000 
M175.045151,107.687904 
	C175.703186,108.027184 176.361206,108.366463 177.625458,109.149757 
	C177.259567,111.265427 176.893661,113.381104 176.514404,115.499039 
	C179.538071,116.085480 182.128159,115.928352 182.967911,112.161247 
	C183.123367,111.463898 183.752411,110.635132 184.387665,110.319664 
	C188.965210,108.046417 193.600677,105.889809 197.995880,103.801636 
	C202.390900,106.697388 199.214172,116.627556 209.156021,115.526070 
	C206.678070,109.964653 204.354492,104.749741 202.051849,99.581787 
	C210.807419,92.325386 217.354645,93.095978 223.544006,102.665970 
	C222.933289,105.420441 222.817322,108.424271 221.586533,110.866219 
	C220.050674,113.913391 217.919403,111.724335 215.918350,110.759552 
	C215.355484,110.488182 213.816528,111.480614 213.253708,112.270073 
	C212.942062,112.707237 213.643921,114.630058 214.026123,114.673393 
	C216.298828,114.931129 219.012375,115.626152 220.832489,114.703674 
	C225.479828,112.348267 226.500992,106.818413 224.019379,100.145523 
	C217.965836,91.286835 211.735535,89.949364 200.096069,95.203583 
	C197.620560,89.840225 195.141922,84.470093 192.470749,78.682816 
	C188.470108,87.595039 184.712296,96.179764 180.707672,104.647774 
	C180.134842,105.859070 178.368652,106.506012 176.901733,107.074738 
	C176.536209,106.867943 176.170685,106.661148 175.295212,105.784157 
	C172.356522,101.292923 176.957489,100.471313 178.990082,97.916939 
	C176.920609,97.559364 174.477798,97.077850 173.255966,98.082008 
	C172.125824,99.010811 171.805511,101.604485 172.061661,103.326141 
	C172.267700,104.710876 173.868134,105.888138 175.045151,107.687904 
M152.765976,105.068314 
	C153.300125,108.472664 153.834259,111.877007 154.367004,115.272522 
	C156.253036,115.272522 157.766968,115.272522 159.642349,115.272522 
	C157.438187,103.205208 155.314011,91.575790 152.989380,78.848907 
	C148.641464,88.214401 144.846207,96.389465 140.733276,105.248802 
	C136.471756,96.120750 132.611786,87.852806 128.389694,78.809196 
	C126.080620,91.669899 123.957489,103.495026 121.816986,115.416870 
	C123.944084,115.416870 125.371925,115.416870 126.960968,115.416870 
	C128.134338,108.889626 129.272522,102.558060 130.637253,94.966324 
	C134.283997,102.979927 137.355118,109.728607 140.691391,117.059975 
	C144.032364,109.817802 147.190948,102.970985 150.813965,95.117416 
	C151.549393,98.864037 152.075775,101.545700 152.765976,105.068314 
M93.542908,78.958824 
	C92.380043,78.901573 91.217010,78.791870 90.054337,78.795509 
	C81.927597,78.820969 74.480843,84.053970 72.147079,91.352791 
	C69.737839,98.887657 72.301338,107.225052 78.468521,111.912392 
	C85.076889,116.935043 93.964912,117.162315 100.774147,112.366310 
	C106.723213,108.176170 109.416397,102.334190 108.530815,95.144989 
	C107.484711,86.652596 102.333481,81.521164 93.542908,78.958824 
M39.950062,105.672699 
	C38.195934,105.380661 36.441803,105.088615 34.390038,104.747017 
	C35.924553,112.369164 39.639866,115.776566 45.574100,115.841858 
	C51.012074,115.901688 55.839733,112.223679 56.944454,107.179230 
	C58.208431,101.407562 55.663200,96.948898 49.475552,94.162880 
	C48.119064,93.552124 46.678635,93.121063 45.344429,92.469009 
	C42.712631,91.182770 39.802010,89.654808 42.070446,86.163567 
	C44.160919,82.946220 47.326458,83.080994 50.273609,85.186287 
	C50.982338,85.692566 51.173637,86.923187 51.546131,87.701988 
	C53.754017,86.143097 54.905354,85.330193 56.391891,84.280617 
	C54.802181,82.770370 53.645592,81.300461 52.162231,80.330048 
	C47.156906,77.055534 39.647747,78.947357 36.953060,84.011276 
	C34.338913,88.923836 36.507549,94.072906 42.450161,96.940849 
	C43.936676,97.658257 45.881748,97.848488 46.939964,98.937805 
	C48.841434,100.895180 51.106754,103.208397 51.501137,105.650520 
	C51.732170,107.081139 48.937389,109.895309 46.975979,110.583992 
	C43.695606,111.735771 41.380829,109.472603 39.950062,105.672699 
z"/>
<path fill="#0B0B0B" opacity="1.000000" stroke="none" 
	d="
M152.684067,104.647842 
	C152.075775,101.545700 151.549393,98.864037 150.813965,95.117416 
	C147.190948,102.970985 144.032364,109.817802 140.691391,117.059975 
	C137.355118,109.728607 134.283997,102.979927 130.637253,94.966324 
	C129.272522,102.558060 128.134338,108.889626 126.960968,115.416870 
	C125.371925,115.416870 123.944084,115.416870 121.816986,115.416870 
	C123.957489,103.495026 126.080620,91.669899 128.389694,78.809196 
	C132.611786,87.852806 136.471756,96.120750 140.733276,105.248802 
	C144.846207,96.389465 148.641464,88.214401 152.989380,78.848907 
	C155.314011,91.575790 157.438187,103.205208 159.642349,115.272522 
	C157.766968,115.272522 156.253036,115.272522 154.367004,115.272522 
	C153.834259,111.877007 153.300125,108.472664 152.684067,104.647842 
z"/>
<path fill="#0B0B0B" opacity="1.000000" stroke="none" 
	d="
M93.934212,78.997650 
	C102.333481,81.521164 107.484711,86.652596 108.530815,95.144989 
	C109.416397,102.334190 106.723213,108.176170 100.774147,112.366310 
	C93.964912,117.162315 85.076889,116.935043 78.468521,111.912392 
	C72.301338,107.225052 69.737839,98.887657 72.147079,91.352791 
	C74.480843,84.053970 81.927597,78.820969 90.054337,78.795509 
	C91.217010,78.791870 92.380043,78.901573 93.934212,78.997650 
M102.046638,103.105545 
	C104.386795,96.016396 103.084122,90.336662 98.237259,86.496460 
	C93.998955,83.138420 87.409447,82.796379 82.921593,85.745369 
	C77.763199,89.134964 76.095055,94.011391 77.005432,99.936111 
	C77.798195,105.095413 82.019119,109.591522 87.476120,110.584679 
	C93.726295,111.722183 98.409019,109.093613 102.046638,103.105545 
z"/>
<path fill="#0C0C0C" opacity="1.000000" stroke="none" 
	d="
M223.304520,101.953979 
	C217.354645,93.095978 210.807419,92.325386 202.051849,99.581787 
	C204.354492,104.749741 206.678070,109.964653 209.156021,115.526070 
	C199.214172,116.627556 202.390900,106.697388 197.995880,103.801636 
	C193.600677,105.889809 188.965210,108.046417 184.387665,110.319664 
	C183.752411,110.635132 183.123367,111.463898 182.967911,112.161247 
	C182.128159,115.928352 179.538071,116.085480 176.521088,115.497910 
	C176.893661,113.381104 177.259567,111.265427 177.358505,108.605087 
	C177.112640,107.844986 177.133713,107.629562 177.154770,107.414139 
	C178.368652,106.506012 180.134842,105.859070 180.707672,104.647774 
	C184.712296,96.179764 188.470108,87.595039 192.470749,78.682816 
	C195.141922,84.470093 197.620560,89.840225 200.096069,95.203583 
	C211.735535,89.949364 217.965836,91.286835 223.957001,100.701996 
	C223.760269,101.543205 223.563568,101.775040 223.304520,101.953979 
M191.985687,91.574936 
	C189.909149,96.193283 187.832611,100.811638 185.756058,105.429985 
	C186.173401,105.681129 186.590729,105.932274 187.008072,106.183418 
	C190.032272,103.734734 193.056473,101.286057 196.363663,98.608238 
	C194.993301,95.925888 193.744797,93.482056 191.985687,91.574936 
z"/>
<path fill="#090909" opacity="1.000000" stroke="none" 
	d="
M40.010139,106.035805 
	C41.380829,109.472603 43.695606,111.735771 46.975979,110.583992 
	C48.937389,109.895309 51.732170,107.081139 51.501137,105.650520 
	C51.106754,103.208397 48.841434,100.895180 46.939964,98.937805 
	C45.881748,97.848488 43.936676,97.658257 42.450161,96.940849 
	C36.507549,94.072906 34.338913,88.923836 36.953060,84.011276 
	C39.647747,78.947357 47.156906,77.055534 52.162231,80.330048 
	C53.645592,81.300461 54.802181,82.770370 56.391891,84.280617 
	C54.905354,85.330193 53.754017,86.143097 51.546131,87.701988 
	C51.173637,86.923187 50.982338,85.692566 50.273609,85.186287 
	C47.326458,83.080994 44.160919,82.946220 42.070446,86.163567 
	C39.802010,89.654808 42.712631,91.182770 45.344429,92.469009 
	C46.678635,93.121063 48.119064,93.552124 49.475552,94.162880 
	C55.663200,96.948898 58.208431,101.407562 56.944454,107.179230 
	C55.839733,112.223679 51.012074,115.901688 45.574100,115.841858 
	C39.639866,115.776566 35.924553,112.369164 34.390038,104.747017 
	C36.441803,105.088615 38.195934,105.380661 40.010139,106.035805 
z"/>
<path fill="#151515" opacity="1.000000" stroke="none" 
	d="
M223.424255,102.309975 
	C223.563568,101.775040 223.760269,101.543205 223.985199,101.046753 
	C226.500992,106.818413 225.479828,112.348267 220.832489,114.703674 
	C219.012375,115.626152 216.298828,114.931129 214.026123,114.673393 
	C213.643921,114.630058 212.942062,112.707237 213.253708,112.270073 
	C213.816528,111.480614 215.355484,110.488182 215.918350,110.759552 
	C217.919403,111.724335 220.050674,113.913391 221.586533,110.866219 
	C222.817322,108.424271 222.933289,105.420441 223.424255,102.309975 
z"/>
<path fill="#141414" opacity="1.000000" stroke="none" 
	d="
M174.849869,107.157455 
	C173.868134,105.888138 172.267700,104.710876 172.061661,103.326141 
	C171.805511,101.604485 172.125824,99.010811 173.255966,98.082008 
	C174.477798,97.077850 176.920609,97.559364 178.990082,97.916939 
	C176.957489,100.471313 172.356522,101.292923 175.297318,106.276031 
	C175.149567,106.897751 174.999725,107.027603 174.849869,107.157455 
z"/>
<path fill="#141414" opacity="1.000000" stroke="none" 
	d="
M177.028259,107.244438 
	C177.133713,107.629562 177.112640,107.844986 177.055389,108.383080 
	C176.361206,108.366463 175.703186,108.027184 174.947510,107.422684 
	C174.999725,107.027603 175.149567,106.897751 175.552307,106.611130 
	C176.170685,106.661148 176.536209,106.867943 177.028259,107.244438 
z"/>
<path fill="#FBFBFB" opacity="1.000000" stroke="none" 
	d="
M101.897598,103.473831 
	C98.409019,109.093613 93.726295,111.722183 87.476120,110.584679 
	C82.019119,109.591522 77.798195,105.095413 77.005432,99.936111 
	C76.095055,94.011391 77.763199,89.134964 82.921593,85.745369 
	C87.409447,82.796379 93.998955,83.138420 98.237259,86.496460 
	C103.084122,90.336662 104.386795,96.016396 101.897598,103.473831 
z"/>
<path fill="#EFEFEF" opacity="1.000000" stroke="none" 
	d="
M192.240997,91.306580 
	C193.744797,93.482056 194.993301,95.925888 196.363663,98.608238 
	C193.056473,101.286057 190.032272,103.734734 187.008072,106.183418 
	C186.590729,105.932274 186.173401,105.681129 185.756058,105.429985 
	C187.832611,100.811638 189.909149,96.193283 192.240997,91.306580 
z"/>
</svg>